<svg width="794" height="189" xmlns="http://www.w3.org/2000/svg" xmlns:xlink="http://www.w3.org/1999/xlink" overflow="hidden"><g><rect x="0" y="0" width="794" height="188.921" fill="#FFFFFF"/><rect x="186.5" y="132.444" width="49" height="20.9912" stroke="#D0CECE" stroke-width="0.666947" stroke-miterlimit="8" stroke-dasharray="0.666947 0.666947" fill="#F2F2F2"/><text fill="#BFBFBF" font-family="Times New Roman,Times New Roman_MSFontService,sans-serif" font-weight="400" font-size="16" transform="matrix(1 0 0 0.99958 196.729 147)">Post</text><rect x="144" y="108.954" width="48" height="22.9903" fill="#F2F2F2"/><text fill="#BFBFBF" font-family="Times New Roman,Times New Roman_MSFontService,sans-serif" font-weight="400" font-size="16" transform="matrix(1 0 0 0.99958 154.321 125)">Post</text><rect x="101" y="85.9639" width="49" height="22.9903" fill="#F2F2F2"/><text fill="#BFBFBF" font-family="Times New Roman,Times New Roman_MSFontService,sans-serif" font-weight="400" font-size="16" transform="matrix(1 0 0 0.99958 112.009 102)">Post</text><rect x="64.5" y="131.445" width="44" height="21.9908" stroke="#D0CECE" stroke-width="0.666947" stroke-miterlimit="8" stroke-dasharray="0.666947 0.666947" fill="#F2F2F2"/><text fill="#BFBFBF" font-family="Times New Roman,Times New Roman_MSFontService,sans-serif" font-weight="400" font-size="16" transform="matrix(1 0 0 0.99958 72.3898 146)">Post</text><rect x="107" y="131.945" width="80" height="20.9912" fill="#F2F2F2"/><text fill="#BFBFBF" font-family="Times New Roman,Times New Roman_MSFontService,sans-serif" font-weight="400" font-size="16" transform="matrix(1 0 0 0.99958 131.154 147)">Infer</text><rect x="272.5" y="132.444" width="84" height="20.9912" stroke="#000000" stroke-width="0.666947" stroke-miterlimit="8" fill="#E7E6E6"/><text font-family="Times New Roman,Times New Roman_MSFontService,sans-serif" font-weight="400" font-size="16" transform="matrix(1 0 0 0.99958 298.463 147)">Infer</text><rect x="356.5" y="132.444" width="48" height="20.9912" stroke="#000000" stroke-width="0.666947" stroke-miterlimit="8" fill="#E7E6E6"/><text font-family="Times New Roman,Times New Roman_MSFontService,sans-serif" font-weight="400" font-size="16" transform="matrix(1 0 0 0.99958 366.254 147)">Post</text><rect x="235.5" y="132.444" width="37" height="20.9912" stroke="#000000" stroke-width="0.666947" stroke-miterlimit="8" fill="#E7E6E6"/><text font-family="Times New Roman,Times New Roman_MSFontService,sans-serif" font-weight="400" font-size="16" transform="matrix(1 0 0 0.99958 242.51 147)">Pre</text><rect x="64" y="86.9635" width="37" height="21.9908" fill="#F2F2F2"/><rect x="64.5" y="64.473" width="44" height="21.9908" stroke="#D0CECE" stroke-width="0.666947" stroke-miterlimit="8" stroke-dasharray="0.666947 0.666947" fill="#F2F2F2"/><text fill="#BFBFBF" font-family="Times New Roman,Times New Roman_MSFontService,sans-serif" font-weight="400" font-size="16" transform="matrix(1 0 0 0.99958 72.3429 79)">Post</text><rect x="64" y="108.954" width="80" height="21.9908" fill="#F2F2F2"/><text fill="#BFBFBF" font-family="Times New Roman,Times New Roman_MSFontService,sans-serif" font-weight="400" font-size="16" transform="matrix(1 0 0 0.99958 88.7461 125)">Infer</text><path d="M68.5016 33.3614 64.5002 41.3615 60.4983 33.3616Z" fill="#FF0000"/><path d="M0 0 0.000104987 35.7907" stroke="#FF0000" stroke-width="0.666667" stroke-miterlimit="8" fill="none" fill-rule="evenodd" transform="matrix(1.00042 0 0 -1 64.5 41.2884)"/><path d="M64.5 86.4637 126.094 86.4638" stroke="#000000" stroke-width="0.666947" stroke-miterlimit="8" fill="none" fill-rule="evenodd"/><path d="M187.5 64.473 787.686 64.6208" stroke="#2E2E2E" stroke-width="0.666947" stroke-miterlimit="8" fill="none" fill-rule="evenodd"/><path d="M64.5 41.4826 787.133 41.4827" stroke="#2E2E2E" stroke-width="0.666947" stroke-miterlimit="8" fill="none" fill-rule="evenodd"/><text font-family="Times New Roman,Times New Roman_MSFontService,sans-serif" font-weight="400" font-size="16" transform="matrix(1 0 0 0.99958 746.117 170)">Time</text><text font-family="Times New Roman,Times New Roman_MSFontService,sans-serif" font-weight="700" font-size="16" transform="matrix(1 0 0 0.99958 329 99)">…</text><path d="M238.502 33.3614 234.5 41.3615 230.498 33.3616Z"/><path d="M408.502 33.3614 404.5 41.3615 400.498 33.3616Z"/><path d="M578.502 33.2402 574.5 41.2402 570.498 33.2403Z"/><path d="M0 0 0.000104987 35.7907" stroke="#000000" stroke-width="0.666667" stroke-miterlimit="8" fill="none" fill-rule="evenodd" transform="matrix(1.00042 0 0 -1 234.5 42.288)"/><path d="M0 0 0.000104987 35.7793" stroke="#000000" stroke-width="0.666667" stroke-miterlimit="8" fill="none" fill-rule="evenodd" transform="matrix(1.00042 0 0 -1 404.5 41.2771)"/><path d="M0 0 0.000104987 35.7907" stroke="#000000" stroke-width="0.666667" stroke-miterlimit="8" fill="none" fill-rule="evenodd" transform="matrix(1.00042 0 0 -1 574.5 42.288)"/><path d="M111.502 33.2402 107.5 41.2402 103.498 33.2403Z"/><path d="M281.502 33.3614 277.5 41.3615 273.498 33.3616Z"/><path d="M451.502 33.3614 447.5 41.3615 443.498 33.3616Z"/><path d="M620.502 33.2402 616.5 41.2402 612.498 33.2403Z"/><path d="M0 0 0.000104987 35.7907" stroke="#000000" stroke-width="0.666667" stroke-miterlimit="8" fill="none" fill-rule="evenodd" transform="matrix(1.00042 0 0 -1 107.5 41.2884)"/><path d="M0 0 0.000104987 35.7907" stroke="#000000" stroke-width="0.666667" stroke-miterlimit="8" fill="none" fill-rule="evenodd" transform="matrix(1.00042 0 0 -1 277.5 41.2884)"/><path d="M0 0 0.000104987 35.7793" stroke="#000000" stroke-width="0.666667" stroke-miterlimit="8" fill="none" fill-rule="evenodd" transform="matrix(1.00042 0 0 -1 447.5 41.2771)"/><path d="M0 0 0.000104987 35.7907" stroke="#000000" stroke-width="0.666667" stroke-miterlimit="8" fill="none" fill-rule="evenodd" transform="matrix(1.00042 0 0 -1 616.5 41.2884)"/><path d="M153.502 33.2402 149.5 41.2402 145.498 33.2403Z"/><path d="M323.502 33.3614 319.5 41.3615 315.498 33.3616Z"/><path d="M493.502 33.3614 489.5 41.3615 485.498 33.3616Z"/><path d="M662.502 33.2402 658.5 41.2402 654.498 33.2403Z"/><path d="M0 0 0.000104987 35.7907" stroke="#000000" stroke-width="0.666667" stroke-miterlimit="8" fill="none" fill-rule="evenodd" transform="matrix(1.00042 0 0 -1 149.5 41.2884)"/><path d="M0 0 0.000104987 35.7907" stroke="#000000" stroke-width="0.666667" stroke-miterlimit="8" fill="none" fill-rule="evenodd" transform="matrix(1.00042 0 0 -1 319.5 41.2884)"/><path d="M0 0 0.000104987 35.7793" stroke="#000000" stroke-width="0.666667" stroke-miterlimit="8" fill="none" fill-rule="evenodd" transform="matrix(1.00042 0 0 -1 489.5 41.2771)"/><path d="M0 0 0.000104987 35.7907" stroke="#000000" stroke-width="0.666667" stroke-miterlimit="8" fill="none" fill-rule="evenodd" transform="matrix(1.00042 0 0 -1 658.5 41.2884)"/><path d="M196.502 33.2402 192.5 41.2402 188.498 33.2403Z"/><path d="M366.502 33.3614 362.5 41.3615 358.498 33.3616Z"/><path d="M536.502 33.3614 532.5 41.3615 528.498 33.3616Z"/><path d="M705.502 33.2402 701.5 41.2402 697.498 33.2403Z"/><path d="M0 0 0.000104987 35.7907" stroke="#000000" stroke-width="0.666667" stroke-miterlimit="8" fill="none" fill-rule="evenodd" transform="matrix(1.00042 0 0 -1 192.5 41.2884)"/><path d="M0 0 0.000104987 35.7907" stroke="#000000" stroke-width="0.666667" stroke-miterlimit="8" fill="none" fill-rule="evenodd" transform="matrix(1.00042 0 0 -1 362.5 41.2884)"/><path d="M0 0 0.000104987 35.7793" stroke="#000000" stroke-width="0.666667" stroke-miterlimit="8" fill="none" fill-rule="evenodd" transform="matrix(1.00042 0 0 -1 532.5 41.2771)"/><path d="M0 0 0.000104987 35.7907" stroke="#000000" stroke-width="0.666667" stroke-miterlimit="8" fill="none" fill-rule="evenodd" transform="matrix(1.00042 0 0 -1 701.5 41.2884)"/><path d="M0 0 0.0829396 45.5799" stroke="#000000" stroke-width="0.666667" stroke-miterlimit="8" stroke-dasharray="2.66667 2" fill="none" fill-rule="evenodd" transform="matrix(1.00042 0 0 -1 149.5 98.058)"/><path d="M0 0 0.000104987 79.1987" stroke="#000000" stroke-width="0.666667" stroke-miterlimit="8" stroke-dasharray="2.66667 2" fill="none" fill-rule="evenodd" transform="matrix(1.00042 0 0 -1 319.5 119.682)"/><path d="M0 0 0.000104987 79.1987" stroke="#000000" stroke-width="0.666667" stroke-miterlimit="8" stroke-dasharray="2.66667 2" fill="none" fill-rule="evenodd" transform="matrix(1.00042 0 0 -1 362.5 118.682)"/><path d="M0 0 0.000104987 22.3445" stroke="#000000" stroke-width="0.666667" stroke-miterlimit="8" stroke-dasharray="2.66667 2" fill="none" fill-rule="evenodd" transform="matrix(1.00042 0 0 -1 107.5 75.822)"/><path d="M0 0 0.000104987 79.1987" stroke="#000000" stroke-width="0.666667" stroke-miterlimit="8" stroke-dasharray="2.66667 2" fill="none" fill-rule="evenodd" transform="matrix(1.00042 0 0 -1 277.5 118.682)"/><path d="M0 0 0.000104987 127.502" stroke="#000000" stroke-width="0.666667" stroke-miterlimit="8" fill="none" fill-rule="evenodd" transform="matrix(1.00042 0 0 -1 64.5 169.984)"/><rect x="107.5" y="64.473" width="37" height="21.9908" stroke="#000000" stroke-width="0.666947" stroke-miterlimit="8" fill="#E7E6E6"/><text font-family="Times New Roman,Times New Roman_MSFontService,sans-serif" font-weight="400" font-size="16" transform="matrix(1 0 0 0.99958 115.213 79)">Pre</text><rect x="149.5" y="86.4637" width="37" height="22.9903" stroke="#000000" stroke-width="0.666947" stroke-miterlimit="8" fill="#E7E6E6"/><text font-family="Times New Roman,Times New Roman_MSFontService,sans-serif" font-weight="400" font-size="16" transform="matrix(1 0 0 0.99958 156.836 102)">Pre</text><rect x="229.5" y="109.454" width="85" height="22.9903" stroke="#000000" stroke-width="0.666947" stroke-miterlimit="8" fill="#E7E6E6"/><text font-family="Times New Roman,Times New Roman_MSFontService,sans-serif" font-weight="400" font-size="16" transform="matrix(1 0 0 0.99958 256.055 125)">Infer</text><rect x="313.5" y="109.454" width="49" height="22.9903" stroke="#000000" stroke-width="0.666947" stroke-miterlimit="8" fill="#E7E6E6"/><text font-family="Times New Roman,Times New Roman_MSFontService,sans-serif" font-weight="400" font-size="16" transform="matrix(1 0 0 0.99958 323.847 125)">Post</text><rect x="192.5" y="108.454" width="37" height="23.9899" stroke="#000000" stroke-width="0.666947" stroke-miterlimit="8" fill="#E7E6E6"/><text font-family="Times New Roman,Times New Roman_MSFontService,sans-serif" font-weight="400" font-size="16" transform="matrix(1 0 0 0.99958 200.102 124)">Pre</text><rect x="64.5" y="41.4826" width="37" height="22.9903" stroke="#000000" stroke-width="0.666947" stroke-miterlimit="8" fill="#FFD966"/><text font-family="Times New Roman,Times New Roman_MSFontService,sans-serif" font-weight="400" font-size="16" transform="matrix(1 0 0 0.99958 72.1825 57)">Pre</text><rect x="101.5" y="41.4826" width="85" height="22.9903" stroke="#000000" stroke-width="0.666947" stroke-miterlimit="8" fill="#FFD966"/><text font-family="Times New Roman,Times New Roman_MSFontService,sans-serif" font-weight="400" font-size="16" transform="matrix(1 0 0 0.99958 128.136 57)">Infer</text><rect x="185.5" y="41.4826" width="49" height="22.9903" stroke="#000000" stroke-width="0.666947" stroke-miterlimit="8" fill="#FFD966"/><text font-family="Times New Roman,Times New Roman_MSFontService,sans-serif" font-weight="400" font-size="16" transform="matrix(1 0 0 0.99958 195.921 57)">Post</text><text font-family="Times New Roman,Times New Roman_MSFontService,sans-serif" font-weight="400" font-size="16" transform="matrix(1 0 0 0.99958 9.66994 58)">Core 1</text><text font-family="Times New Roman,Times New Roman_MSFontService,sans-serif" font-weight="400" font-size="16" transform="matrix(1 0 0 0.99958 9.70439 80)">Core 2</text><text font-family="Times New Roman,Times New Roman_MSFontService,sans-serif" font-weight="400" font-size="16" transform="matrix(1 0 0 0.99958 9.64904 103)">Core 3</text><text font-family="Times New Roman,Times New Roman_MSFontService,sans-serif" font-weight="400" font-size="16" transform="matrix(1 0 0 0.99958 9.68349 126)">Core 4</text><path d="M240.002 140.937 234 152.937 227.997 140.938Z" fill="#FF0000"/><text font-family="Times New Roman,Times New Roman_MSFontService,sans-serif" font-weight="700" font-size="16" transform="matrix(1 0 0 0.99958 372.089 122)">…</text><text font-family="Times New Roman,Times New Roman_MSFontService,sans-serif" font-weight="700" font-size="16" transform="matrix(1 0 0 0.99958 286.615 77)">…</text><text font-family="Times New Roman,Times New Roman_MSFontService,sans-serif" font-weight="700" font-size="16" transform="matrix(1 0 0 0.99958 242.968 54)">…</text><text fill="#BFBFBF" font-family="Times New Roman,Times New Roman_MSFontService,sans-serif" font-weight="700" font-size="16" transform="matrix(1 0 0 0.99958 74.3044 100)">…</text><path d="M64 40.9828 64.0001 66.614" stroke="#FF0000" stroke-width="4.00168" stroke-miterlimit="8" fill="none" fill-rule="evenodd"/><text font-family="Times New Roman,Times New Roman_MSFontService,sans-serif" font-weight="700" font-size="16" transform="matrix(6.12323e-17 0.999161 -1.00042 6.12066e-17 32.4561 136)">…</text><path d="M0 0 0.000104987 15.9499" stroke="#000000" stroke-width="0.666667" stroke-miterlimit="8" fill="none" fill-rule="evenodd" transform="matrix(1.00042 0 0 -1 235.5 168.386)"/><path d="M72.1695 160.099 227.987 160.099 227.987 160.766 72.1695 160.766ZM73.5034 164.433 65.5 160.433 73.5034 156.433ZM226.653 156.433 234.656 160.433 226.653 164.433Z"/><text font-family="Times New Roman,Times New Roman_MSFontService,sans-serif" font-weight="400" font-size="16" transform="matrix(1 0 0 0.99958 95.8618 174)">Perception delay</text><path d="M64 151.936 786.171 151.936 786.171 153.936 64 153.936ZM784.836 148.936 792.84 152.936 784.836 156.936Z"/><path d="M64.5 132.444 787.133 132.445" stroke="#2E2E2E" stroke-width="0.666947" stroke-miterlimit="8" fill="none" fill-rule="evenodd"/><path d="M64.5 109.454 787.133 109.454" stroke="#2E2E2E" stroke-width="0.666947" stroke-miterlimit="8" fill="none" fill-rule="evenodd"/><rect x="186.5" y="86.4637" width="85" height="22.9903" stroke="#000000" stroke-width="0.666947" stroke-miterlimit="8" fill="#E7E6E6"/><text font-family="Times New Roman,Times New Roman_MSFontService,sans-serif" font-weight="400" font-size="16" transform="matrix(1 0 0 0.99958 212.789 102)">Infer</text><rect x="144.5" y="63.4734" width="85" height="22.9903" stroke="#000000" stroke-width="0.666947" stroke-miterlimit="8" fill="#E7E6E6"/><text font-family="Times New Roman,Times New Roman_MSFontService,sans-serif" font-weight="400" font-size="16" transform="matrix(1 0 0 0.99958 171.136 79)">Infer</text><path d="M69.5 86.4637 787.996 86.4638" stroke="#2E2E2E" stroke-width="0.666947" stroke-miterlimit="8" fill="none" fill-rule="evenodd"/><rect x="270.5" y="86.4637" width="49" height="22.9903" stroke="#000000" stroke-width="0.666947" stroke-miterlimit="8" fill="#E7E6E6"/><text font-family="Times New Roman,Times New Roman_MSFontService,sans-serif" font-weight="400" font-size="16" transform="matrix(1 0 0 0.99958 280.741 102)">Post</text><rect x="228.5" y="64.473" width="49" height="21.9908" stroke="#000000" stroke-width="0.666947" stroke-miterlimit="8" fill="#E7E6E6"/><text font-family="Times New Roman,Times New Roman_MSFontService,sans-serif" font-weight="400" font-size="16" transform="matrix(1 0 0 0.99958 238.943 79)">Post</text><path d="M234.129 141.507 234 62.9736" stroke="#FF0000" stroke-width="4.00168" stroke-miterlimit="8" fill="none" fill-rule="evenodd"/><path d="M0 0 170.726 0.000104987" stroke="#FF0000" stroke-width="4" stroke-miterlimit="8" fill="none" fill-rule="evenodd" transform="matrix(-1.00042 0 0 1 236.797 63.9731)"/><text font-family="Times New Roman,Times New Roman_MSFontService,sans-serif" font-weight="700" font-size="16" transform="matrix(1 0 0 0.99958 412.34 144)">…</text><path d="M186.5 132.444 186.5 152.322" stroke="#D0CECE" stroke-width="0.666947" stroke-miterlimit="8" stroke-dasharray="0.666947 0.666947" fill="none" fill-rule="evenodd"/><path d="M144.5 110.454 144.5 131.853" stroke="#D0CECE" stroke-width="0.666947" stroke-miterlimit="8" stroke-dasharray="0.666947 0.666947" fill="none" fill-rule="evenodd"/><path d="M107.5 132.444 107.5 151.701" stroke="#D0CECE" stroke-width="0.666947" stroke-miterlimit="8" stroke-dasharray="0.666947 0.666947" fill="none" fill-rule="evenodd"/><path d="M101.5 87.4633 101.5 108.862" stroke="#D0CECE" stroke-width="0.666947" stroke-miterlimit="8" stroke-dasharray="0.666947 0.666947" fill="none" fill-rule="evenodd"/></g></svg>