<?xml version="1.0" encoding="utf-8" standalone="no"?>
<!DOCTYPE svg PUBLIC "-//W3C//DTD SVG 1.1//EN"
  "http://www.w3.org/Graphics/SVG/1.1/DTD/svg11.dtd">
<svg xmlns:xlink="http://www.w3.org/1999/xlink" width="360pt" height="280.8pt" viewBox="0 0 360 280.8" xmlns="http://www.w3.org/2000/svg" version="1.1">
 <metadata>
  <rdf:RDF xmlns:dc="http://purl.org/dc/elements/1.1/" xmlns:cc="http://creativecommons.org/ns#" xmlns:rdf="http://www.w3.org/1999/02/22-rdf-syntax-ns#">
   <cc:Work>
    <dc:type rdf:resource="http://purl.org/dc/dcmitype/StillImage"/>
    <dc:date>2023-11-30T17:21:25.618651</dc:date>
    <dc:format>image/svg+xml</dc:format>
    <dc:creator>
     <cc:Agent>
      <dc:title>Matplotlib v3.8.1, https://matplotlib.org/</dc:title>
     </cc:Agent>
    </dc:creator>
   </cc:Work>
  </rdf:RDF>
 </metadata>
 <defs>
  <style type="text/css">*{stroke-linejoin: round; stroke-linecap: butt}</style>
 </defs>
 <g id="figure_1">
  <g id="patch_1">
   <path d="M 0 280.8 
L 360 280.8 
L 360 0 
L 0 0 
z
" style="fill: #ffffff"/>
  </g>
  <g id="axes_1">
   <g id="patch_2">
    <path d="M 86.96 242.84 
L 349.2 242.84 
L 349.2 10.8 
L 86.96 10.8 
z
" style="fill: #ffffff"/>
   </g>
   <g id="patch_3">
    <path d="M 98.88 242.84 
L 146.56 242.84 
L 146.56 146.636216 
L 98.88 146.636216 
z
" clip-path="url(#pa8983c0ef4)" style="fill: #4072cf; stroke: #000000; stroke-linejoin: miter"/>
   </g>
   <g id="patch_4">
    <path d="M 194.24 242.84 
L 241.92 242.84 
L 241.92 53.673893 
L 194.24 53.673893 
z
" clip-path="url(#pa8983c0ef4)" style="fill: #4072cf; stroke: #000000; stroke-linejoin: miter"/>
   </g>
   <g id="patch_5">
    <path d="M 289.6 242.84 
L 337.28 242.84 
L 337.28 131.211357 
L 289.6 131.211357 
z
" clip-path="url(#pa8983c0ef4)" style="fill: #4072cf; stroke: #000000; stroke-linejoin: miter"/>
   </g>
   <g id="matplotlib.axis_1">
    <g id="xtick_1">
     <g id="line2d_1">
      <defs>
       <path id="m873706ccd5" d="M 0 0 
L 0 3.5 
" style="stroke: #000000; stroke-width: 0.8"/>
      </defs>
      <g>
       <use xlink:href="#m873706ccd5" x="122.72" y="242.84" style="stroke: #000000; stroke-width: 0.8"/>
      </g>
     </g>
     <g id="text_1">
      <!-- Seq -->
      <g transform="translate(106.330938 265.036875) scale(0.2 -0.2)">
       <defs>
        <path id="Tahoma-53" d="M 1769 -84 
Q 1263 -84 908 20 
Q 553 125 241 278 
L 241 1053 
L 284 1053 
Q 591 766 978 608 
Q 1366 450 1725 450 
Q 2238 450 2500 664 
Q 2763 878 2763 1228 
Q 2763 1506 2625 1681 
Q 2488 1856 2188 1941 
Q 1972 2003 1794 2043 
Q 1616 2084 1347 2153 
Q 1106 2216 915 2312 
Q 725 2409 578 2566 
Q 434 2719 354 2926 
Q 275 3134 275 3406 
Q 275 3972 715 4355 
Q 1156 4738 1841 4738 
Q 2231 4738 2579 4659 
Q 2928 4581 3225 4438 
L 3225 3697 
L 3178 3697 
Q 2956 3900 2609 4051 
Q 2263 4203 1881 4203 
Q 1450 4203 1184 4001 
Q 919 3800 919 3472 
Q 919 3175 1075 3000 
Q 1231 2825 1528 2744 
Q 1725 2691 2009 2623 
Q 2294 2556 2481 2500 
Q 2963 2353 3184 2056 
Q 3406 1759 3406 1325 
Q 3406 1053 3295 787 
Q 3184 522 2984 338 
Q 2759 134 2476 25 
Q 2194 -84 1769 -84 
z
" transform="scale(0.015625)"/>
        <path id="Tahoma-65" d="M 1941 -81 
Q 1106 -81 645 389 
Q 184 859 184 1725 
Q 184 2578 631 3083 
Q 1078 3588 1800 3588 
Q 2125 3588 2375 3494 
Q 2625 3400 2813 3200 
Q 3000 3000 3100 2711 
Q 3200 2422 3200 2003 
L 3200 1684 
L 781 1684 
Q 781 1075 1087 753 
Q 1394 431 1934 431 
Q 2128 431 2314 475 
Q 2500 519 2650 588 
Q 2809 659 2918 726 
Q 3028 794 3100 853 
L 3134 853 
L 3134 213 
Q 3031 172 2878 111 
Q 2725 50 2603 16 
Q 2431 -31 2292 -56 
Q 2153 -81 1941 -81 
z
M 2628 2134 
Q 2622 2372 2572 2544 
Q 2522 2716 2428 2834 
Q 2325 2966 2164 3034 
Q 2003 3103 1766 3103 
Q 1531 3103 1367 3033 
Q 1203 2963 1069 2828 
Q 938 2691 869 2523 
Q 800 2356 781 2134 
L 2628 2134 
z
" transform="scale(0.015625)"/>
        <path id="Tahoma-71" d="M 3113 -1288 
L 2525 -1288 
L 2525 381 
Q 2269 147 2025 39 
Q 1781 -69 1484 -69 
Q 891 -69 537 407 
Q 184 884 184 1734 
Q 184 2184 307 2529 
Q 431 2875 634 3109 
Q 828 3338 1097 3463 
Q 1366 3588 1656 3588 
Q 1925 3588 2122 3525 
Q 2319 3463 2525 3341 
L 2563 3491 
L 3113 3491 
L 3113 -1288 
z
M 2525 875 
L 2525 2863 
Q 2303 2972 2128 3015 
Q 1953 3059 1753 3059 
Q 1291 3059 1041 2725 
Q 791 2391 791 1763 
Q 791 1150 991 820 
Q 1191 491 1613 491 
Q 1859 491 2093 597 
Q 2328 703 2525 875 
z
" transform="scale(0.015625)"/>
       </defs>
       <use xlink:href="#Tahoma-53"/>
       <use xlink:href="#Tahoma-65" x="55.962891"/>
       <use xlink:href="#Tahoma-71" x="108.599609"/>
      </g>
     </g>
    </g>
    <g id="xtick_2">
     <g id="line2d_2">
      <g>
       <use xlink:href="#m873706ccd5" x="218.08" y="242.84" style="stroke: #000000; stroke-width: 0.8"/>
      </g>
     </g>
     <g id="text_2">
      <!-- Tpa -->
      <g transform="translate(201.462812 265.036875) scale(0.2 -0.2)">
       <defs>
        <path id="Tahoma-54" d="M 1559 0 
L 1559 4103 
L -3 4103 
L -3 4653 
L 3741 4653 
L 3741 4103 
L 2178 4103 
L 2178 0 
L 1559 0 
z
" transform="scale(0.015625)"/>
        <path id="Tahoma-70" d="M 3353 1838 
Q 3353 966 2936 448 
Q 2519 -69 1881 -69 
Q 1622 -69 1422 -9 
Q 1222 50 1013 175 
L 1013 -1288 
L 425 -1288 
L 425 3491 
L 1013 3491 
L 1013 3125 
Q 1231 3322 1498 3455 
Q 1766 3588 2081 3588 
Q 2681 3588 3017 3113 
Q 3353 2638 3353 1838 
z
M 2747 1772 
Q 2747 2369 2556 2698 
Q 2366 3028 1938 3028 
Q 1688 3028 1455 2917 
Q 1222 2806 1013 2631 
L 1013 653 
Q 1244 541 1408 500 
Q 1572 459 1784 459 
Q 2241 459 2494 793 
Q 2747 1128 2747 1772 
z
" transform="scale(0.015625)"/>
        <path id="Tahoma-61" d="M 2375 859 
L 2375 1828 
Q 2166 1809 1845 1776 
Q 1525 1744 1328 1684 
Q 1094 1613 941 1464 
Q 788 1316 788 1050 
Q 788 750 956 597 
Q 1125 444 1450 444 
Q 1728 444 1953 564 
Q 2178 684 2375 859 
z
M 2375 372 
Q 2303 319 2183 223 
Q 2063 128 1950 72 
Q 1794 -9 1648 -53 
Q 1503 -97 1241 -97 
Q 1025 -97 831 -15 
Q 638 66 491 213 
Q 350 356 265 567 
Q 181 778 181 1013 
Q 181 1375 334 1629 
Q 488 1884 819 2034 
Q 1113 2169 1513 2220 
Q 1913 2272 2375 2297 
L 2375 2409 
Q 2375 2616 2312 2742 
Q 2250 2869 2138 2938 
Q 2025 3009 1862 3032 
Q 1700 3056 1528 3056 
Q 1325 3056 1050 2995 
Q 775 2934 500 2819 
L 466 2819 
L 466 3416 
Q 628 3463 931 3519 
Q 1234 3575 1531 3575 
Q 1891 3575 2137 3519 
Q 2384 3463 2581 3316 
Q 2772 3172 2865 2944 
Q 2959 2716 2959 2388 
L 2959 0 
L 2375 0 
L 2375 372 
z
" transform="scale(0.015625)"/>
       </defs>
       <use xlink:href="#Tahoma-54"/>
       <use xlink:href="#Tahoma-70" x="58.398438"/>
       <use xlink:href="#Tahoma-61" x="113.671875"/>
      </g>
     </g>
    </g>
    <g id="xtick_3">
     <g id="line2d_3">
      <g>
       <use xlink:href="#m873706ccd5" x="313.44" y="242.84" style="stroke: #000000; stroke-width: 0.8"/>
      </g>
     </g>
     <g id="text_3">
      <!-- Dpa -->
      <g transform="translate(295.880625 265.036875) scale(0.2 -0.2)">
       <defs>
        <path id="Tahoma-44" d="M 4141 2322 
Q 4141 1684 3883 1171 
Q 3625 659 3191 372 
Q 2838 150 2473 75 
Q 2109 0 1544 0 
L 472 0 
L 472 4653 
L 1531 4653 
Q 2188 4653 2561 4554 
Q 2934 4456 3197 4284 
Q 3647 3988 3894 3495 
Q 4141 3003 4141 2322 
z
M 3497 2331 
Q 3497 2869 3319 3248 
Q 3141 3628 2791 3841 
Q 2544 3991 2262 4056 
Q 1981 4122 1563 4122 
L 1091 4122 
L 1091 531 
L 1563 531 
Q 1975 531 2284 597 
Q 2594 663 2850 841 
Q 3172 1059 3334 1423 
Q 3497 1788 3497 2331 
z
" transform="scale(0.015625)"/>
       </defs>
       <use xlink:href="#Tahoma-44"/>
       <use xlink:href="#Tahoma-70" x="67.822266"/>
       <use xlink:href="#Tahoma-61" x="123.095703"/>
      </g>
     </g>
    </g>
   </g>
   <g id="matplotlib.axis_2">
    <g id="ytick_1">
     <g id="line2d_4">
      <path d="M 86.96 242.84 
L 349.2 242.84 
" clip-path="url(#pa8983c0ef4)" style="fill: none; stroke: #b0b0b0; stroke-opacity: 0.3; stroke-width: 0.8; stroke-linecap: square"/>
     </g>
     <g id="line2d_5">
      <defs>
       <path id="m6d0d8fac17" d="M 0 0 
L -3.5 0 
" style="stroke: #000000; stroke-width: 0.8"/>
      </defs>
      <g>
       <use xlink:href="#m6d0d8fac17" x="86.96" y="242.84" style="stroke: #000000; stroke-width: 0.8"/>
      </g>
     </g>
     <g id="text_4">
      <!-- 0 -->
      <g transform="translate(69.04125 250.438438) scale(0.2 -0.2)">
       <defs>
        <path id="Tahoma-30" d="M 3234 2328 
Q 3234 1075 2870 489 
Q 2506 -97 1747 -97 
Q 978 -97 618 500 
Q 259 1097 259 2322 
Q 259 3581 623 4164 
Q 988 4747 1747 4747 
Q 2516 4747 2875 4144 
Q 3234 3541 3234 2328 
z
M 2434 909 
Q 2525 1141 2562 1494 
Q 2600 1847 2600 2328 
Q 2600 2806 2562 3159 
Q 2525 3513 2431 3747 
Q 2338 3984 2173 4107 
Q 2009 4231 1747 4231 
Q 1488 4231 1320 4107 
Q 1153 3984 1056 3741 
Q 963 3503 928 3140 
Q 894 2778 894 2322 
Q 894 1834 923 1506 
Q 953 1178 1053 919 
Q 1144 678 1311 548 
Q 1478 419 1747 419 
Q 2006 419 2173 542 
Q 2341 666 2434 909 
z
" transform="scale(0.015625)"/>
       </defs>
       <use xlink:href="#Tahoma-30"/>
      </g>
     </g>
    </g>
    <g id="ytick_2">
     <g id="line2d_6">
      <path d="M 86.96 194.498333 
L 349.2 194.498333 
" clip-path="url(#pa8983c0ef4)" style="fill: none; stroke: #b0b0b0; stroke-opacity: 0.3; stroke-width: 0.8; stroke-linecap: square"/>
     </g>
     <g id="line2d_7">
      <g>
       <use xlink:href="#m6d0d8fac17" x="86.96" y="194.498333" style="stroke: #000000; stroke-width: 0.8"/>
      </g>
     </g>
     <g id="text_5">
      <!-- 250 -->
      <g transform="translate(47.20375 202.096771) scale(0.2 -0.2)">
       <defs>
        <path id="Tahoma-32" d="M 3213 0 
L 341 0 
L 341 653 
Q 650 947 925 1215 
Q 1200 1484 1463 1775 
Q 1994 2359 2187 2711 
Q 2381 3063 2381 3438 
Q 2381 3631 2320 3778 
Q 2259 3925 2153 4022 
Q 2044 4116 1900 4162 
Q 1756 4209 1584 4209 
Q 1419 4209 1248 4167 
Q 1078 4125 922 4063 
Q 791 4009 669 3934 
Q 547 3859 472 3806 
L 438 3806 
L 438 4469 
Q 631 4566 976 4658 
Q 1322 4750 1631 4750 
Q 2281 4750 2650 4404 
Q 3019 4059 3019 3469 
Q 3019 3197 2955 2965 
Q 2891 2734 2778 2538 
Q 2663 2334 2500 2134 
Q 2338 1934 2156 1741 
Q 1863 1422 1502 1078 
Q 1141 734 925 534 
L 3213 534 
L 3213 0 
z
" transform="scale(0.015625)"/>
        <path id="Tahoma-35" d="M 3159 1481 
Q 3159 1144 3051 856 
Q 2944 569 2750 359 
Q 2553 147 2261 25 
Q 1969 -97 1606 -97 
Q 1272 -97 948 -23 
Q 625 50 388 169 
L 388 828 
L 431 828 
Q 503 775 637 708 
Q 772 641 934 581 
Q 1119 516 1272 480 
Q 1425 444 1616 444 
Q 1803 444 1981 511 
Q 2159 578 2288 728 
Q 2403 866 2464 1050 
Q 2525 1234 2525 1484 
Q 2525 1731 2458 1890 
Q 2391 2050 2263 2153 
Q 2128 2272 1933 2320 
Q 1738 2369 1497 2369 
Q 1244 2369 987 2330 
Q 731 2291 578 2256 
L 578 4653 
L 3131 4653 
L 3131 4106 
L 1181 4106 
L 1181 2869 
Q 1294 2881 1403 2887 
Q 1513 2894 1603 2894 
Q 1959 2894 2206 2834 
Q 2453 2775 2681 2603 
Q 2913 2428 3036 2165 
Q 3159 1903 3159 1481 
z
" transform="scale(0.015625)"/>
       </defs>
       <use xlink:href="#Tahoma-32"/>
       <use xlink:href="#Tahoma-35" x="54.589844"/>
       <use xlink:href="#Tahoma-30" x="109.179688"/>
      </g>
     </g>
    </g>
    <g id="ytick_3">
     <g id="line2d_8">
      <path d="M 86.96 146.156667 
L 349.2 146.156667 
" clip-path="url(#pa8983c0ef4)" style="fill: none; stroke: #b0b0b0; stroke-opacity: 0.3; stroke-width: 0.8; stroke-linecap: square"/>
     </g>
     <g id="line2d_9">
      <g>
       <use xlink:href="#m6d0d8fac17" x="86.96" y="146.156667" style="stroke: #000000; stroke-width: 0.8"/>
      </g>
     </g>
     <g id="text_6">
      <!-- 500 -->
      <g transform="translate(47.20375 153.755104) scale(0.2 -0.2)">
       <use xlink:href="#Tahoma-35"/>
       <use xlink:href="#Tahoma-30" x="54.589844"/>
       <use xlink:href="#Tahoma-30" x="109.179688"/>
      </g>
     </g>
    </g>
    <g id="ytick_4">
     <g id="line2d_10">
      <path d="M 86.96 97.815 
L 349.2 97.815 
" clip-path="url(#pa8983c0ef4)" style="fill: none; stroke: #b0b0b0; stroke-opacity: 0.3; stroke-width: 0.8; stroke-linecap: square"/>
     </g>
     <g id="line2d_11">
      <g>
       <use xlink:href="#m6d0d8fac17" x="86.96" y="97.815" style="stroke: #000000; stroke-width: 0.8"/>
      </g>
     </g>
     <g id="text_7">
      <!-- 750 -->
      <g transform="translate(47.20375 105.413437) scale(0.2 -0.2)">
       <defs>
        <path id="Tahoma-37" d="M 3263 3956 
L 1250 0 
L 584 0 
L 2716 4106 
L 309 4106 
L 309 4653 
L 3263 4653 
L 3263 3956 
z
" transform="scale(0.015625)"/>
       </defs>
       <use xlink:href="#Tahoma-37"/>
       <use xlink:href="#Tahoma-35" x="54.589844"/>
       <use xlink:href="#Tahoma-30" x="109.179688"/>
      </g>
     </g>
    </g>
    <g id="ytick_5">
     <g id="line2d_12">
      <path d="M 86.96 49.473333 
L 349.2 49.473333 
" clip-path="url(#pa8983c0ef4)" style="fill: none; stroke: #b0b0b0; stroke-opacity: 0.3; stroke-width: 0.8; stroke-linecap: square"/>
     </g>
     <g id="line2d_13">
      <g>
       <use xlink:href="#m6d0d8fac17" x="86.96" y="49.473333" style="stroke: #000000; stroke-width: 0.8"/>
      </g>
     </g>
     <g id="text_8">
      <!-- 1000 -->
      <g transform="translate(36.285 57.071771) scale(0.2 -0.2)">
       <defs>
        <path id="Tahoma-31" d="M 2975 0 
L 706 0 
L 706 475 
L 1550 475 
L 1550 3594 
L 706 3594 
L 706 4019 
Q 1184 4019 1411 4155 
Q 1638 4291 1666 4669 
L 2150 4669 
L 2150 475 
L 2975 475 
L 2975 0 
z
" transform="scale(0.015625)"/>
       </defs>
       <use xlink:href="#Tahoma-31"/>
       <use xlink:href="#Tahoma-30" x="54.589844"/>
       <use xlink:href="#Tahoma-30" x="109.179688"/>
       <use xlink:href="#Tahoma-30" x="163.769531"/>
      </g>
     </g>
    </g>
    <g id="text_9">
     <!-- Perception delay (ms) -->
     <g transform="translate(27.65625 237.405078) rotate(-90) scale(0.23 -0.23)">
      <defs>
       <path id="Tahoma-50" d="M 3409 3250 
Q 3409 2947 3301 2676 
Q 3194 2406 3003 2216 
Q 2763 1978 2438 1856 
Q 2113 1734 1616 1734 
L 1091 1734 
L 1091 0 
L 472 0 
L 472 4653 
L 1641 4653 
Q 2053 4653 2343 4584 
Q 2634 4516 2856 4363 
Q 3116 4184 3262 3911 
Q 3409 3638 3409 3250 
z
M 2766 3234 
Q 2766 3475 2683 3653 
Q 2600 3831 2431 3944 
Q 2284 4041 2089 4081 
Q 1894 4122 1603 4122 
L 1091 4122 
L 1091 2263 
L 1513 2263 
Q 1888 2263 2119 2323 
Q 2350 2384 2503 2541 
Q 2641 2681 2703 2847 
Q 2766 3013 2766 3234 
z
" transform="scale(0.015625)"/>
       <path id="Tahoma-72" d="M 2275 2859 
L 2244 2859 
Q 2178 2878 2104 2883 
Q 2031 2888 1928 2888 
Q 1691 2888 1456 2784 
Q 1222 2681 1013 2478 
L 1013 0 
L 425 0 
L 425 3491 
L 1013 3491 
L 1013 2972 
Q 1334 3256 1573 3373 
Q 1813 3491 2038 3491 
Q 2128 3491 2173 3486 
Q 2219 3481 2275 3472 
L 2275 2859 
z
" transform="scale(0.015625)"/>
       <path id="Tahoma-63" d="M 1813 -78 
Q 1453 -78 1153 33 
Q 853 144 638 369 
Q 422 594 303 936 
Q 184 1278 184 1741 
Q 184 2200 307 2534 
Q 431 2869 638 3097 
Q 844 3325 1151 3448 
Q 1459 3572 1813 3572 
Q 2100 3572 2367 3490 
Q 2634 3409 2844 3303 
L 2844 2644 
L 2809 2644 
Q 2747 2697 2648 2765 
Q 2550 2834 2409 2906 
Q 2288 2969 2122 3016 
Q 1956 3063 1803 3063 
Q 1347 3063 1070 2717 
Q 794 2372 794 1741 
Q 794 1122 1061 776 
Q 1328 431 1803 431 
Q 2091 431 2350 550 
Q 2609 669 2809 856 
L 2844 856 
L 2844 197 
Q 2756 156 2625 98 
Q 2494 41 2388 13 
Q 2238 -31 2119 -54 
Q 2000 -78 1813 -78 
z
" transform="scale(0.015625)"/>
       <path id="Tahoma-74" d="M 1481 -69 
Q 1000 -69 731 204 
Q 463 478 463 1069 
L 463 3003 
L 66 3003 
L 66 3491 
L 463 3491 
L 463 4494 
L 1050 4494 
L 1050 3491 
L 2131 3491 
L 2131 3003 
L 1050 3003 
L 1050 1344 
Q 1050 1078 1059 934 
Q 1069 791 1131 666 
Q 1184 556 1303 501 
Q 1422 447 1625 447 
Q 1769 447 1903 489 
Q 2038 531 2097 559 
L 2131 559 
L 2131 31 
Q 1966 -16 1795 -42 
Q 1625 -69 1481 -69 
z
" transform="scale(0.015625)"/>
       <path id="Tahoma-69" d="M 1025 0 
L 438 0 
L 438 3491 
L 1025 3491 
L 1025 0 
z
M 1066 4075 
L 397 4075 
L 397 4684 
L 1066 4684 
L 1066 4075 
z
" transform="scale(0.015625)"/>
       <path id="Tahoma-6f" d="M 3297 1744 
Q 3297 863 2872 383 
Q 2447 -97 1741 -97 
Q 1013 -97 595 398 
Q 178 894 178 1744 
Q 178 2619 608 3103 
Q 1038 3588 1741 3588 
Q 2447 3588 2872 3105 
Q 3297 2622 3297 1744 
z
M 2691 1744 
Q 2691 2422 2444 2751 
Q 2197 3081 1741 3081 
Q 1281 3081 1032 2751 
Q 784 2422 784 1744 
Q 784 1088 1032 748 
Q 1281 409 1741 409 
Q 2194 409 2442 742 
Q 2691 1075 2691 1744 
z
" transform="scale(0.015625)"/>
       <path id="Tahoma-6e" d="M 3169 0 
L 2581 0 
L 2581 1988 
Q 2581 2228 2557 2436 
Q 2534 2644 2469 2769 
Q 2397 2900 2269 2964 
Q 2141 3028 1919 3028 
Q 1700 3028 1467 2911 
Q 1234 2794 1013 2606 
L 1013 0 
L 425 0 
L 425 3491 
L 1013 3491 
L 1013 3103 
Q 1275 3338 1531 3463 
Q 1788 3588 2072 3588 
Q 2588 3588 2878 3248 
Q 3169 2909 3169 2266 
L 3169 0 
z
" transform="scale(0.015625)"/>
       <path id="Tahoma-20" transform="scale(0.015625)"/>
       <path id="Tahoma-64" d="M 3113 0 
L 2525 0 
L 2525 356 
Q 2388 241 2288 166 
Q 2188 91 2053 28 
Q 1928 -31 1793 -64 
Q 1659 -97 1481 -97 
Q 1197 -97 955 22 
Q 713 141 544 369 
Q 372 600 278 939 
Q 184 1278 184 1719 
Q 184 2178 303 2514 
Q 422 2850 631 3100 
Q 822 3328 1092 3458 
Q 1363 3588 1659 3588 
Q 1922 3588 2115 3530 
Q 2309 3472 2525 3350 
L 2525 4863 
L 3113 4863 
L 3113 0 
z
M 2525 850 
L 2525 2863 
Q 2306 2969 2132 3009 
Q 1959 3050 1756 3050 
Q 1303 3050 1047 2711 
Q 791 2372 791 1731 
Q 791 1116 987 789 
Q 1184 463 1619 463 
Q 1850 463 2084 567 
Q 2319 672 2525 850 
z
" transform="scale(0.015625)"/>
       <path id="Tahoma-6c" d="M 1025 0 
L 438 0 
L 438 4863 
L 1025 4863 
L 1025 0 
z
" transform="scale(0.015625)"/>
       <path id="Tahoma-79" d="M 3169 3491 
L 1291 -1288 
L 663 -1288 
L 1288 169 
L 19 3491 
L 653 3491 
L 1606 906 
L 2556 3491 
L 3169 3491 
z
" transform="scale(0.015625)"/>
       <path id="Tahoma-28" d="M 2219 -1288 
L 1503 -1288 
Q 959 -641 648 81 
Q 338 803 338 1788 
Q 338 2750 645 3483 
Q 953 4216 1503 4863 
L 2219 4863 
L 2219 4831 
Q 1966 4603 1736 4304 
Q 1506 4006 1309 3609 
Q 1122 3225 1005 2762 
Q 888 2300 888 1788 
Q 888 1253 1002 809 
Q 1116 366 1309 -34 
Q 1497 -419 1737 -730 
Q 1978 -1041 2219 -1256 
L 2219 -1288 
z
" transform="scale(0.015625)"/>
       <path id="Tahoma-6d" d="M 4388 0 
L 4388 2019 
Q 4388 2259 4369 2464 
Q 4350 2669 4291 2784 
Q 4228 2909 4112 2968 
Q 3997 3028 3800 3028 
Q 3619 3028 3411 2917 
Q 3203 2806 2981 2597 
Q 2984 2544 2989 2470 
Q 2994 2397 2994 2297 
L 2994 0 
L 2406 0 
L 2406 2019 
Q 2406 2259 2387 2464 
Q 2369 2669 2309 2784 
Q 2247 2909 2131 2968 
Q 2016 3028 1819 3028 
Q 1628 3028 1418 2909 
Q 1209 2791 1013 2606 
L 1013 0 
L 425 0 
L 425 3491 
L 1013 3491 
L 1013 3103 
Q 1244 3334 1470 3461 
Q 1697 3588 1969 3588 
Q 2278 3588 2517 3447 
Q 2756 3306 2881 2984 
Q 3147 3281 3400 3434 
Q 3653 3588 3950 3588 
Q 4175 3588 4359 3517 
Q 4544 3447 4681 3291 
Q 4822 3131 4898 2893 
Q 4975 2656 4975 2297 
L 4975 0 
L 4388 0 
z
" transform="scale(0.015625)"/>
       <path id="Tahoma-73" d="M 1369 -84 
Q 1019 -84 714 9 
Q 409 103 209 209 
L 209 869 
L 241 869 
Q 316 809 417 737 
Q 519 666 688 588 
Q 838 519 1017 466 
Q 1197 413 1391 413 
Q 1531 413 1690 445 
Q 1850 478 1928 528 
Q 2038 600 2086 681 
Q 2134 763 2134 925 
Q 2134 1134 2020 1240 
Q 1906 1347 1616 1419 
Q 1503 1447 1322 1484 
Q 1141 1522 988 1566 
Q 588 1681 406 1923 
Q 225 2166 225 2509 
Q 225 2981 581 3278 
Q 938 3575 1528 3575 
Q 1819 3575 2112 3503 
Q 2406 3431 2606 3322 
L 2606 2694 
L 2575 2694 
Q 2350 2872 2073 2975 
Q 1797 3078 1516 3078 
Q 1225 3078 1025 2956 
Q 825 2834 825 2588 
Q 825 2369 944 2261 
Q 1063 2153 1325 2084 
Q 1456 2050 1617 2017 
Q 1778 1984 1956 1941 
Q 2344 1844 2539 1619 
Q 2734 1394 2734 1006 
Q 2734 781 2645 579 
Q 2556 378 2384 234 
Q 2197 78 1961 -3 
Q 1725 -84 1369 -84 
z
" transform="scale(0.015625)"/>
       <path id="Tahoma-29" d="M 2113 1788 
Q 2113 822 1803 90 
Q 1494 -641 947 -1288 
L 231 -1288 
L 231 -1256 
Q 472 -1041 715 -727 
Q 959 -413 1141 -34 
Q 1334 369 1448 817 
Q 1563 1266 1563 1788 
Q 1563 2303 1447 2762 
Q 1331 3222 1141 3609 
Q 950 3997 709 4306 
Q 469 4616 231 4831 
L 231 4863 
L 947 4863 
Q 1491 4216 1802 3487 
Q 2113 2759 2113 1788 
z
" transform="scale(0.015625)"/>
      </defs>
      <use xlink:href="#Tahoma-50"/>
      <use xlink:href="#Tahoma-65" x="52.876953"/>
      <use xlink:href="#Tahoma-72" x="105.513672"/>
      <use xlink:href="#Tahoma-63" x="141.048828"/>
      <use xlink:href="#Tahoma-65" x="187.191406"/>
      <use xlink:href="#Tahoma-70" x="239.828125"/>
      <use xlink:href="#Tahoma-74" x="295.101562"/>
      <use xlink:href="#Tahoma-69" x="328.548828"/>
      <use xlink:href="#Tahoma-6f" x="351.400391"/>
      <use xlink:href="#Tahoma-6e" x="405.697266"/>
      <use xlink:href="#Tahoma-20" x="461.458984"/>
      <use xlink:href="#Tahoma-64" x="492.708984"/>
      <use xlink:href="#Tahoma-65" x="547.982422"/>
      <use xlink:href="#Tahoma-6c" x="600.619141"/>
      <use xlink:href="#Tahoma-61" x="623.470703"/>
      <use xlink:href="#Tahoma-79" x="675.335938"/>
      <use xlink:href="#Tahoma-20" x="725.140625"/>
      <use xlink:href="#Tahoma-28" x="756.390625"/>
      <use xlink:href="#Tahoma-6d" x="794.671875"/>
      <use xlink:href="#Tahoma-73" x="878.65625"/>
      <use xlink:href="#Tahoma-29" x="923.285156"/>
     </g>
    </g>
   </g>
   <g id="patch_6">
    <path d="M 86.96 242.84 
L 86.96 10.8 
" style="fill: none; stroke: #000000; stroke-width: 0.8; stroke-linejoin: miter; stroke-linecap: square"/>
   </g>
   <g id="patch_7">
    <path d="M 349.2 242.84 
L 349.2 10.8 
" style="fill: none; stroke: #000000; stroke-width: 0.8; stroke-linejoin: miter; stroke-linecap: square"/>
   </g>
   <g id="patch_8">
    <path d="M 86.96 242.84 
L 349.2 242.84 
" style="fill: none; stroke: #000000; stroke-width: 0.8; stroke-linejoin: miter; stroke-linecap: square"/>
   </g>
   <g id="patch_9">
    <path d="M 86.96 10.8 
L 349.2 10.8 
" style="fill: none; stroke: #000000; stroke-width: 0.8; stroke-linejoin: miter; stroke-linecap: square"/>
   </g>
   <g id="text_10">
    <!-- 497.52 -->
    <g transform="translate(93.1325 142.611216) scale(0.2 -0.2)">
     <defs>
      <path id="Tahoma-34" d="M 3334 1600 
L 2781 1600 
L 2781 0 
L 2181 0 
L 2181 1600 
L 125 1600 
L 125 2256 
L 2206 4653 
L 2781 4653 
L 2781 2100 
L 3334 2100 
L 3334 1600 
z
M 2181 2100 
L 2181 3919 
L 613 2100 
L 2181 2100 
z
" transform="scale(0.015625)"/>
      <path id="Tahoma-39" d="M 2600 2741 
Q 2600 3216 2512 3514 
Q 2425 3813 2272 3975 
Q 2134 4125 1993 4181 
Q 1853 4238 1684 4238 
Q 1300 4238 1072 3963 
Q 844 3688 844 3166 
Q 844 2872 919 2681 
Q 994 2491 1163 2353 
Q 1281 2256 1431 2223 
Q 1581 2191 1753 2191 
Q 1953 2191 2184 2261 
Q 2416 2331 2588 2447 
Q 2591 2494 2595 2570 
Q 2600 2647 2600 2741 
z
M 209 3141 
Q 209 3500 326 3797 
Q 444 4094 647 4309 
Q 841 4516 1120 4631 
Q 1400 4747 1688 4747 
Q 2009 4747 2270 4639 
Q 2531 4531 2722 4328 
Q 2963 4072 3095 3656 
Q 3228 3241 3228 2606 
Q 3228 2028 3098 1511 
Q 2969 994 2716 653 
Q 2447 291 2070 100 
Q 1694 -91 1141 -91 
Q 1016 -91 875 -77 
Q 734 -63 613 -25 
L 613 572 
L 644 572 
Q 722 528 887 487 
Q 1053 447 1225 447 
Q 1838 447 2188 850 
Q 2538 1253 2584 2003 
Q 2334 1834 2107 1756 
Q 1881 1678 1616 1678 
Q 1356 1678 1143 1734 
Q 931 1791 716 1953 
Q 466 2144 337 2436 
Q 209 2728 209 3141 
z
" transform="scale(0.015625)"/>
      <path id="Tahoma-2e" d="M 1341 0 
L 594 0 
L 594 891 
L 1341 891 
L 1341 0 
z
" transform="scale(0.015625)"/>
     </defs>
     <use xlink:href="#Tahoma-34"/>
     <use xlink:href="#Tahoma-39" x="54.589844"/>
     <use xlink:href="#Tahoma-37" x="109.179688"/>
     <use xlink:href="#Tahoma-2e" x="156.394531"/>
     <use xlink:href="#Tahoma-35" x="186.667969"/>
     <use xlink:href="#Tahoma-32" x="241.257812"/>
    </g>
   </g>
   <g id="text_11">
    <!-- 978.28 -->
    <g transform="translate(187.755 49.648893) scale(0.2 -0.2)">
     <defs>
      <path id="Tahoma-38" d="M 2534 3569 
Q 2534 3881 2325 4090 
Q 2116 4300 1744 4300 
Q 1403 4300 1186 4112 
Q 969 3925 969 3606 
Q 969 3375 1080 3215 
Q 1191 3056 1413 2928 
Q 1509 2875 1707 2781 
Q 1906 2688 2069 2634 
Q 2341 2844 2437 3064 
Q 2534 3284 2534 3569 
z
M 2622 1238 
Q 2622 1525 2509 1694 
Q 2397 1863 2075 2038 
Q 1969 2097 1792 2165 
Q 1616 2234 1394 2328 
Q 1134 2156 996 1904 
Q 859 1653 859 1331 
Q 859 909 1114 634 
Q 1369 359 1753 359 
Q 2147 359 2384 595 
Q 2622 831 2622 1238 
z
M 1747 -106 
Q 1400 -106 1115 -3 
Q 831 100 631 294 
Q 434 481 332 739 
Q 231 997 231 1284 
Q 231 1663 432 1980 
Q 634 2297 1019 2484 
L 1019 2503 
Q 675 2703 509 2940 
Q 344 3178 344 3534 
Q 344 4059 741 4409 
Q 1138 4759 1747 4759 
Q 2381 4759 2764 4426 
Q 3147 4094 3147 3575 
Q 3147 3263 2964 2956 
Q 2781 2650 2438 2478 
L 2438 2459 
Q 2844 2269 3053 1997 
Q 3263 1725 3263 1297 
Q 3263 700 2830 297 
Q 2397 -106 1747 -106 
z
" transform="scale(0.015625)"/>
     </defs>
     <use xlink:href="#Tahoma-39"/>
     <use xlink:href="#Tahoma-37" x="54.589844"/>
     <use xlink:href="#Tahoma-38" x="109.179688"/>
     <use xlink:href="#Tahoma-2e" x="163.769531"/>
     <use xlink:href="#Tahoma-32" x="194.042969"/>
     <use xlink:href="#Tahoma-38" x="248.632812"/>
    </g>
   </g>
   <g id="text_12">
    <!-- 577.29 -->
    <g transform="translate(283.8525 127.186357) scale(0.2 -0.2)">
     <use xlink:href="#Tahoma-35"/>
     <use xlink:href="#Tahoma-37" x="54.589844"/>
     <use xlink:href="#Tahoma-37" x="109.179688"/>
     <use xlink:href="#Tahoma-2e" x="156.394531"/>
     <use xlink:href="#Tahoma-32" x="186.667969"/>
     <use xlink:href="#Tahoma-39" x="241.257812"/>
    </g>
   </g>
  </g>
 </g>
 <defs>
  <clipPath id="pa8983c0ef4">
   <rect x="86.96" y="10.8" width="262.24" height="232.04"/>
  </clipPath>
 </defs>
</svg>
