<svg width="794" height="189" xmlns="http://www.w3.org/2000/svg" xmlns:xlink="http://www.w3.org/1999/xlink" overflow="hidden"><g><rect x="0" y="0" width="794" height="188.921" fill="#FFFFFF"/><path d="M0 0 0.000104987 113.462" stroke="#000000" stroke-width="0.666667" stroke-miterlimit="8" stroke-dasharray="2.66667 2" fill="none" fill-rule="evenodd" transform="matrix(1.00042 0 0 -1 489.5 152.946)"/><path d="M0 0 0.000104987 113.919" stroke="#000000" stroke-width="0.666667" stroke-miterlimit="8" stroke-dasharray="2.66667 2" fill="none" fill-rule="evenodd" transform="matrix(1.00042 0 0 -1 235.5 152.403)"/><rect x="150.5" y="86.4637" width="49" height="22.9903" stroke="#D0CECE" stroke-width="0.666947" stroke-miterlimit="8" stroke-dasharray="0.666947 0.666947" fill="#F2F2F2"/><text fill="#BFBFBF" font-family="Times New Roman,Times New Roman_MSFontService,sans-serif" font-weight="400" font-size="16" transform="matrix(1 0 0 0.99958 160.636 102)">Post</text><rect x="489.5" y="86.4637" width="50" height="22.9903" stroke="#000000" stroke-width="0.666947" stroke-miterlimit="8" fill="#E7E6E6"/><text font-family="Times New Roman,Times New Roman_MSFontService,sans-serif" font-weight="400" font-size="16" transform="matrix(1 0 0 0.99958 500.247 102)">Post</text><rect x="405.5" y="86.4637" width="49" height="22.9903" stroke="#000000" stroke-width="0.666947" stroke-miterlimit="8" fill="#E7E6E6"/><text font-family="Times New Roman,Times New Roman_MSFontService,sans-serif" font-weight="400" font-size="16" transform="matrix(1 0 0 0.99958 415.47 102)">Post</text><rect x="65.5" y="85.4641" width="49" height="23.9899" stroke="#D0CECE" stroke-width="0.666947" stroke-miterlimit="8" stroke-dasharray="0.666947 0.666947" fill="#F2F2F2"/><text fill="#BFBFBF" font-family="Times New Roman,Times New Roman_MSFontService,sans-serif" font-weight="400" font-size="16" transform="matrix(1 0 0 0.99958 75.8039 101)">Post</text><path d="M65.5 109.454 788.133 109.454" stroke="#000000" stroke-width="0.666947" stroke-miterlimit="8" fill="none" fill-rule="evenodd"/><path d="M69.5016 33.3614 65.5002 41.3615 61.4983 33.3616Z" fill="#FF0000"/><path d="M0 0 0.000104987 35.7907" stroke="#FF0000" stroke-width="0.666667" stroke-miterlimit="8" fill="none" fill-rule="evenodd" transform="matrix(1.00042 0 0 -1 65.5 41.2884)"/><path d="M65.5 64.473 788.133 64.4731" stroke="#000000" stroke-width="0.666947" stroke-miterlimit="8" fill="none" fill-rule="evenodd"/><path d="M65.5 41.4826 788.133 41.4827" stroke="#000000" stroke-width="0.666947" stroke-miterlimit="8" fill="none" fill-rule="evenodd"/><text font-family="Times New Roman,Times New Roman_MSFontService,sans-serif" font-weight="400" font-size="16" transform="matrix(1 0 0 0.99958 745.418 170)">Time</text><text font-family="Times New Roman,Times New Roman_MSFontService,sans-serif" font-weight="700" font-size="16" transform="matrix(1 0 0 0.99958 418.94 76)">…</text><path d="M578.502 33.2402 574.5 41.2402 570.498 33.2403Z"/><path d="M0 0 0.000104987 35.7907" stroke="#000000" stroke-width="0.666667" stroke-miterlimit="8" fill="none" fill-rule="evenodd" transform="matrix(1.00042 0 0 -1 235.5 41.2884)"/><path d="M0 0 0.000104987 35.7793" stroke="#000000" stroke-width="0.666667" stroke-miterlimit="8" fill="none" fill-rule="evenodd" transform="matrix(1.00042 0 0 -1 405.5 41.2771)"/><path d="M0 0 0.000104987 35.7907" stroke="#000000" stroke-width="0.666667" stroke-miterlimit="8" fill="none" fill-rule="evenodd" transform="matrix(1.00042 0 0 -1 574.5 41.2884)"/><path d="M493.502 33.3614 489.5 41.3615 485.498 33.3616Z"/><path d="M663.502 33.2402 659.5 41.2402 655.498 33.2403Z"/><path d="M0 0 0.000104987 35.7907" stroke="#000000" stroke-width="0.666667" stroke-miterlimit="8" fill="none" fill-rule="evenodd" transform="matrix(1.00042 0 0 -1 320.5 41.2884)"/><path d="M0 0 0.000104987 35.7793" stroke="#000000" stroke-width="0.666667" stroke-miterlimit="8" fill="none" fill-rule="evenodd" transform="matrix(1.00042 0 0 -1 489.5 41.2771)"/><path d="M0 0 0.000104987 35.7907" stroke="#000000" stroke-width="0.666667" stroke-miterlimit="8" fill="none" fill-rule="evenodd" transform="matrix(1.00042 0 0 -1 659.5 41.2884)"/><path d="M0 0 0.000104987 113.919" stroke="#000000" stroke-width="0.666667" stroke-miterlimit="8" stroke-dasharray="2.66667 2" fill="none" fill-rule="evenodd" transform="matrix(1.00042 0 0 -1 405.5 153.403)"/><rect x="65.5" y="41.4826" width="37" height="21.9908" stroke="#000000" stroke-width="0.666947" stroke-miterlimit="8" fill="#FFD966"/><text font-family="Times New Roman,Times New Roman_MSFontService,sans-serif" font-weight="400" font-size="16" transform="matrix(1 0 0 0.99958 72.9769 56)">Pre</text><rect x="150.5" y="63.4734" width="85" height="22.9903" stroke="#000000" stroke-width="0.666947" stroke-miterlimit="8" fill="#FFD966"/><text font-family="Times New Roman,Times New Roman_MSFontService,sans-serif" font-weight="400" font-size="16" transform="matrix(1 0 0 0.99958 176.906 79)">Infer</text><rect x="235.5" y="63.4734" width="85" height="22.9903" stroke="#000000" stroke-width="0.666947" stroke-miterlimit="8" fill="#E7E6E6"/><text font-family="Times New Roman,Times New Roman_MSFontService,sans-serif" font-weight="400" font-size="16" transform="matrix(1 0 0 0.99958 261.646 79)">Infer</text><rect x="235.5" y="86.4637" width="49" height="22.9903" stroke="#000000" stroke-width="0.666947" stroke-miterlimit="8" fill="#FFD966"/><text font-family="Times New Roman,Times New Roman_MSFontService,sans-serif" font-weight="400" font-size="16" transform="matrix(1 0 0 0.99958 245.544 102)">Post</text><rect x="320.5" y="63.4734" width="85" height="22.9903" stroke="#000000" stroke-width="0.666947" stroke-miterlimit="8" fill="#E7E6E6"/><text font-family="Times New Roman,Times New Roman_MSFontService,sans-serif" font-weight="400" font-size="16" transform="matrix(1 0 0 0.99958 346.698 79)">Infer</text><path d="M239.502 33.3614 235.5 41.3615 231.498 33.3616Z"/><path d="M409.502 33.3614 405.5 41.3615 401.498 33.3616Z"/><path d="M154.502 33.2402 150.5 41.2402 146.498 33.2403Z"/><path d="M324.502 33.3614 320.5 41.3615 316.498 33.3616Z"/><path d="M0 0 0.000104987 36.9565" stroke="#000000" stroke-width="0.666667" stroke-miterlimit="8" stroke-dasharray="2.66667 2" fill="none" fill-rule="evenodd" transform="matrix(1.00042 0 0 -1 284.5 131.417)"/><text font-family="Times New Roman,Times New Roman_MSFontService,sans-serif" font-weight="400" font-size="16" transform="matrix(1 0 0 0.99958 10.4643 58)">Core 1</text><text font-family="Times New Roman,Times New Roman_MSFontService,sans-serif" font-weight="400" font-size="16" transform="matrix(1 0 0 0.99958 10.4987 79)">Core 2</text><text font-family="Times New Roman,Times New Roman_MSFontService,sans-serif" font-weight="400" font-size="16" transform="matrix(1 0 0 0.99958 10.4434 102)">Core 3</text><text font-family="Times New Roman,Times New Roman_MSFontService,sans-serif" font-weight="400" font-size="16" transform="matrix(1 0 0 0.99958 10.4778 125)">Core 4</text><text font-family="Times New Roman,Times New Roman_MSFontService,sans-serif" font-weight="700" font-size="16" transform="matrix(1 0 0 0.99958 415.154 54)">…</text><path d="M290.002 140.937 284 152.937 277.997 140.938Z" fill="#FF0000"/><text font-family="Times New Roman,Times New Roman_MSFontService,sans-serif" font-weight="400" font-size="16" transform="matrix(1 0 0 0.99958 75.5784 124)">IDLE</text><text font-family="Times New Roman,Times New Roman_MSFontService,sans-serif" font-weight="700" font-size="16" transform="matrix(1 0 0 0.99958 499.049 76)">…</text><rect x="405.5" y="63.4734" width="84" height="22.9903" stroke="#000000" stroke-width="0.666947" stroke-miterlimit="8" fill="#E7E6E6"/><text font-family="Times New Roman,Times New Roman_MSFontService,sans-serif" font-weight="400" font-size="16" transform="matrix(1 0 0 0.99958 431.573 79)">Infer</text><text font-family="Times New Roman,Times New Roman_MSFontService,sans-serif" font-weight="700" font-size="16" transform="matrix(1 0 0 0.99958 547.942 99)">…</text><path d="M65 151.936 786.707 151.936 786.707 153.936 65 153.936ZM785.372 148.936 793.375 152.936 785.372 156.936Z"/><path d="M65.5 131.445 788.133 131.445" stroke="#000000" stroke-width="0.666947" stroke-miterlimit="8" fill="none" fill-rule="evenodd"/><path d="M0 0 0.000104987 14.9751" stroke="#000000" stroke-width="0.666667" stroke-miterlimit="8" fill="none" fill-rule="evenodd" transform="matrix(1.00042 0 0 -1 284.5 168.411)"/><path d="M72.1693 160.099 277.462 160.099 277.462 160.766 72.1693 160.766ZM73.5034 164.433 65.5 160.433 73.5034 156.433ZM276.128 156.433 284.131 160.433 276.128 164.433Z"/><text font-family="Times New Roman,Times New Roman_MSFontService,sans-serif" font-weight="400" font-size="16" transform="matrix(1 0 0 0.99958 118.352 174)">Perception delay</text><text font-family="Times New Roman,Times New Roman_MSFontService,sans-serif" font-weight="400" font-size="16" transform="matrix(1 0 0 0.99958 75.7095 147)">IDLE</text><text font-family="Times New Roman,Times New Roman_MSFontService,sans-serif" font-weight="700" font-size="16" transform="matrix(6.12323e-17 0.999161 -1.00042 6.12066e-17 33.333 137)">…</text><path d="M0 0 0.000104987 113.919" stroke="#000000" stroke-width="0.666667" stroke-miterlimit="8" stroke-dasharray="2.66667 2" fill="none" fill-rule="evenodd" transform="matrix(1.00042 0 0 -1 320.5 153.403)"/><rect x="65" y="63.9731" width="85" height="21.9908" fill="#F2F2F2"/><text fill="#BFBFBF" font-family="Times New Roman,Times New Roman_MSFontService,sans-serif" font-weight="400" font-size="16" transform="matrix(1 0 0 0.99958 91.9061 79)">Infer</text><path d="M65.5 86.4637 788.133 86.4638" stroke="#000000" stroke-width="0.666947" stroke-miterlimit="8" fill="none" fill-rule="evenodd"/><path d="M0 0 0.000104987 128.038" stroke="#000000" stroke-width="0.666667" stroke-miterlimit="8" fill="none" fill-rule="evenodd" transform="matrix(1.00042 0 0 -1 65.5 169.521)"/><path d="M0 0 0.000104987 113.919" stroke="#000000" stroke-width="0.666667" stroke-miterlimit="8" stroke-dasharray="2.66667 2" fill="none" fill-rule="evenodd" transform="matrix(1.00042 0 0 -1 150.5 153.403)"/><path d="M0 0 0.055958 46.8041" stroke="#000000" stroke-width="0.666667" stroke-miterlimit="8" fill="none" fill-rule="evenodd" transform="matrix(1.00042 0 0 -1 150.5 52.3018)"/><rect x="150.5" y="41.4826" width="37" height="21.9908" stroke="#000000" stroke-width="0.666947" stroke-miterlimit="8" fill="#E7E6E6"/><text font-family="Times New Roman,Times New Roman_MSFontService,sans-serif" font-weight="400" font-size="16" transform="matrix(1 0 0 0.99958 157.776 56)">Pre</text><path d="M0 0 85.8397 0.000104987" stroke="#FF0000" stroke-width="4" stroke-miterlimit="8" fill="none" fill-rule="evenodd" transform="matrix(-1.00042 0 0 1 148.876 63.9731)"/><path d="M0 0 52.6063 0.000104987" stroke="#FF0000" stroke-width="4" stroke-miterlimit="8" fill="none" fill-rule="evenodd" transform="matrix(-1.00042 0 0 1 285.628 107.955)"/><path d="M235 83.9647 235 107.571" stroke="#FF0000" stroke-width="4.00168" stroke-miterlimit="8" fill="none" fill-rule="evenodd"/><path d="M65 39.9832 65.0001 64.9099" stroke="#FF0000" stroke-width="4.00168" stroke-miterlimit="8" fill="none" fill-rule="evenodd"/><path d="M150 60.9744 150 84.6547" stroke="#FF0000" stroke-width="4.00168" stroke-miterlimit="8" fill="none" fill-rule="evenodd"/><path d="M0 0 86.0607 0.000104987" stroke="#FF0000" stroke-width="4" stroke-miterlimit="8" fill="none" fill-rule="evenodd" transform="matrix(-1.00042 0 0 1 234.097 85.9639)"/><path d="M0 0 0.000104987 38.7539" stroke="#FF0000" stroke-width="4" stroke-miterlimit="8" fill="none" fill-rule="evenodd" transform="matrix(1.00042 0 0 -1 284 146.709)"/><rect x="235.5" y="41.4826" width="37" height="21.9908" stroke="#000000" stroke-width="0.666947" stroke-miterlimit="8" fill="#E7E6E6"/><text font-family="Times New Roman,Times New Roman_MSFontService,sans-serif" font-weight="400" font-size="16" transform="matrix(1 0 0 0.99958 242.689 56)">Pre</text><rect x="320.5" y="41.4826" width="37" height="21.9908" stroke="#000000" stroke-width="0.666947" stroke-miterlimit="8" fill="#E7E6E6"/><text font-family="Times New Roman,Times New Roman_MSFontService,sans-serif" font-weight="400" font-size="16" transform="matrix(1 0 0 0.99958 327.517 56)">Pre</text><rect x="320.5" y="86.4637" width="49" height="22.9903" stroke="#000000" stroke-width="0.666947" stroke-miterlimit="8" fill="#E7E6E6"/><text font-family="Times New Roman,Times New Roman_MSFontService,sans-serif" font-weight="400" font-size="16" transform="matrix(1 0 0 0.99958 330.321 102)">Post</text></g></svg>