<svg width="794" height="189" xmlns="http://www.w3.org/2000/svg" xmlns:xlink="http://www.w3.org/1999/xlink" overflow="hidden"><g><rect x="0" y="0" width="794" height="188.921" fill="#FFFFFF"/><text font-family="Times New Roman,Times New Roman_MSFontService,sans-serif" font-weight="400" font-size="16" transform="matrix(1 0 0 0.99958 239.303 167)">Perception results</text><path d="M0 0 0.000104987 113.919" stroke="#000000" stroke-width="0.666667" stroke-miterlimit="8" stroke-dasharray="2.66667 2" fill="none" fill-rule="evenodd" transform="matrix(1.00042 0 0 -1 404.5 153.403)"/><text font-family="Times New Roman,Times New Roman_MSFontService,sans-serif" font-weight="700" font-size="16" transform="matrix(1 0 0 0.99958 755.598 53)">…</text><path d="M64.5 41.4826 787.133 41.4827" stroke="#000000" stroke-width="0.666947" stroke-miterlimit="8" fill="none" fill-rule="evenodd"/><path d="M64.5 63.4734 787.133 63.4735" stroke="#000000" stroke-width="0.666947" stroke-miterlimit="8" fill="none" fill-rule="evenodd"/><path d="M64.5 86.4637 787.133 86.4638" stroke="#000000" stroke-width="0.666947" stroke-miterlimit="8" fill="none" fill-rule="evenodd"/><path d="M64.5 109.454 787.133 109.454" stroke="#000000" stroke-width="0.666947" stroke-miterlimit="8" fill="none" fill-rule="evenodd"/><text font-family="Times New Roman,Times New Roman_MSFontService,sans-serif" font-weight="400" font-size="16" transform="matrix(1 0 0 0.99958 9.66994 58)">Core 1</text><text font-family="Times New Roman,Times New Roman_MSFontService,sans-serif" font-weight="400" font-size="16" transform="matrix(1 0 0 0.99958 9.70439 79)">Core 2</text><text font-family="Times New Roman,Times New Roman_MSFontService,sans-serif" font-weight="400" font-size="16" transform="matrix(1 0 0 0.99958 9.64904 102)">Core 3</text><text font-family="Times New Roman,Times New Roman_MSFontService,sans-serif" font-weight="400" font-size="16" transform="matrix(1 0 0 0.99958 9.68349 125)">Core 4</text><path d="M0 0 0.000104987 127.033" stroke="#000000" stroke-width="0.666667" stroke-miterlimit="8" fill="none" fill-rule="evenodd" transform="matrix(1.00042 0 0 -1 64.5 168.516)"/><text font-family="Times New Roman,Times New Roman_MSFontService,sans-serif" font-weight="400" font-size="16" transform="matrix(1 0 0 0.99958 744.55 169)">Time</text><rect x="441.5" y="41.4826" width="85" height="21.9908" stroke="#000000" stroke-width="0.666947" stroke-miterlimit="8" fill="#E7E6E6"/><text font-family="Times New Roman,Times New Roman_MSFontService,sans-serif" font-weight="400" font-size="16" transform="matrix(1 0 0 0.99958 467.551 56)">Infer</text><rect x="525.5" y="41.4826" width="49" height="21.9908" stroke="#000000" stroke-width="0.666947" stroke-miterlimit="8" fill="#E7E6E6"/><text font-family="Times New Roman,Times New Roman_MSFontService,sans-serif" font-weight="400" font-size="16" transform="matrix(1 0 0 0.99958 535.336 56)">Post</text><rect x="404.5" y="41.4826" width="37" height="21.9908" stroke="#000000" stroke-width="0.666947" stroke-miterlimit="8" fill="#E7E6E6"/><text font-family="Times New Roman,Times New Roman_MSFontService,sans-serif" font-weight="400" font-size="16" transform="matrix(1 0 0 0.99958 411.597 56)">Pre</text><path d="M238.502 33.3614 234.5 41.3615 230.498 33.3616Z"/><path d="M408.502 33.3614 404.5 41.3615 400.498 33.3616Z"/><path d="M578.502 33.2402 574.5 41.2402 570.498 33.2403Z"/><path d="M0 0 0.000104987 35.7907" stroke="#000000" stroke-width="0.666667" stroke-miterlimit="8" fill="none" fill-rule="evenodd" transform="matrix(1.00042 0 0 -1 234.5 41.2884)"/><path d="M0 0 0.000104987 35.7793" stroke="#000000" stroke-width="0.666667" stroke-miterlimit="8" fill="none" fill-rule="evenodd" transform="matrix(1.00042 0 0 -1 404.5 41.2771)"/><path d="M0 0 0.000104987 35.7907" stroke="#000000" stroke-width="0.666667" stroke-miterlimit="8" fill="none" fill-rule="evenodd" transform="matrix(1.00042 0 0 -1 574.5 41.2884)"/><rect x="271.5" y="41.4826" width="85" height="21.9908" stroke="#000000" stroke-width="0.666947" stroke-miterlimit="8" fill="#E7E6E6"/><text font-family="Times New Roman,Times New Roman_MSFontService,sans-serif" font-weight="400" font-size="16" transform="matrix(1 0 0 0.99958 297.88 56)">Infer</text><rect x="355.5" y="41.4826" width="49" height="21.9908" stroke="#000000" stroke-width="0.666947" stroke-miterlimit="8" fill="#E7E6E6"/><text font-family="Times New Roman,Times New Roman_MSFontService,sans-serif" font-weight="400" font-size="16" transform="matrix(1 0 0 0.99958 365.665 56)">Post</text><rect x="234.5" y="41.4826" width="37" height="21.9908" stroke="#000000" stroke-width="0.666947" stroke-miterlimit="8" fill="#E7E6E6"/><text font-family="Times New Roman,Times New Roman_MSFontService,sans-serif" font-weight="400" font-size="16" transform="matrix(1 0 0 0.99958 241.927 56)">Pre</text><rect x="611.5" y="41.4826" width="84" height="21.9908" stroke="#000000" stroke-width="0.666947" stroke-miterlimit="8" fill="#E7E6E6"/><text font-family="Times New Roman,Times New Roman_MSFontService,sans-serif" font-weight="400" font-size="16" transform="matrix(1 0 0 0.99958 637.366 56)">Infer</text><rect x="694.5" y="41.4826" width="49" height="21.9908" stroke="#000000" stroke-width="0.666947" stroke-miterlimit="8" fill="#E7E6E6"/><text font-family="Times New Roman,Times New Roman_MSFontService,sans-serif" font-weight="400" font-size="16" transform="matrix(1 0 0 0.99958 705.151 56)">Post</text><rect x="574.5" y="41.4826" width="37" height="21.9908" stroke="#000000" stroke-width="0.666947" stroke-miterlimit="8" fill="#E7E6E6"/><text font-family="Times New Roman,Times New Roman_MSFontService,sans-serif" font-weight="400" font-size="16" transform="matrix(1 0 0 0.99958 581.413 56)">Pre</text><rect x="101.5" y="41.4826" width="85" height="21.9908" stroke="#000000" stroke-width="0.666947" stroke-miterlimit="8" fill="#FFD966"/><text font-family="Times New Roman,Times New Roman_MSFontService,sans-serif" font-weight="400" font-size="16" transform="matrix(1 0 0 0.99958 128.136 56)">Infer</text><rect x="185.5" y="41.4826" width="49" height="21.9908" stroke="#000000" stroke-width="0.666947" stroke-miterlimit="8" fill="#FFD966"/><text font-family="Times New Roman,Times New Roman_MSFontService,sans-serif" font-weight="400" font-size="16" transform="matrix(1 0 0 0.99958 195.921 56)">Post</text><rect x="64.5" y="41.4826" width="37" height="21.9908" stroke="#000000" stroke-width="0.666947" stroke-miterlimit="8" fill="#FFD966"/><text font-family="Times New Roman,Times New Roman_MSFontService,sans-serif" font-weight="400" font-size="16" transform="matrix(1 0 0 0.99958 72.1825 56)">Pre</text><path d="M0 0 169.788 0.000104987" stroke="#FF0000" stroke-width="4" stroke-miterlimit="8" fill="none" fill-rule="evenodd" transform="matrix(-1.00042 0 0 1 231.859 63.9731)"/><path d="M240.002 140.937 234 152.937 227.997 140.938Z" fill="#FF0000"/><text font-family="Times New Roman,Times New Roman_MSFontService,sans-serif" font-weight="400" font-size="16" transform="matrix(1 0 0 0.99958 72.3914 36)">Sensor data</text><path d="M68.5016 33.3614 64.5002 41.3615 60.4983 33.3616Z" fill="#FF0000"/><path d="M0 0 0.000104987 35.7907" stroke="#FF0000" stroke-width="0.666667" stroke-miterlimit="8" fill="none" fill-rule="evenodd" transform="matrix(1.00042 0 0 -1 64.5 41.2884)"/><text font-family="Times New Roman,Times New Roman_MSFontService,sans-serif" font-weight="400" font-size="16" transform="matrix(1 0 0 0.99958 75.1017 80)">IDLE</text><text font-family="Times New Roman,Times New Roman_MSFontService,sans-serif" font-weight="400" font-size="16" transform="matrix(1 0 0 0.99958 74.7897 124)">IDLE</text><text font-family="Times New Roman,Times New Roman_MSFontService,sans-serif" font-weight="400" font-size="16" transform="matrix(1 0 0 0.99958 74.7897 103)">IDLE</text><path d="M64 39.9832 64.0001 65.6483" stroke="#FF0000" stroke-width="4.00168" stroke-miterlimit="8" fill="none" fill-rule="evenodd"/><path d="M0 0 0.000104987 14.6876" stroke="#000000" stroke-width="0.666667" stroke-miterlimit="8" fill="none" fill-rule="evenodd" transform="matrix(1.00042 0 0 -1 233.5 169.123)"/><path d="M64 151.936 786.171 151.936 786.171 153.936 64 153.936ZM784.836 148.936 792.84 152.936 784.836 156.936Z"/><path d="M64.5 131.445 787.133 131.445" stroke="#000000" stroke-width="0.666947" stroke-miterlimit="8" fill="none" fill-rule="evenodd"/><text font-family="Times New Roman,Times New Roman_MSFontService,sans-serif" font-weight="700" font-size="16" transform="matrix(6.12323e-17 0.999161 -1.00042 6.12066e-17 32.5606 135)">…</text><path d="M71.1695 160.099 227.598 160.099 227.598 160.766 71.1695 160.766ZM72.5034 164.433 64.5 160.433 72.5034 156.433ZM226.264 156.433 234.267 160.433 226.264 164.433Z"/><text font-family="Times New Roman,Times New Roman_MSFontService,sans-serif" font-weight="400" font-size="16" transform="matrix(1 0 0 0.99958 95.272 174)">Perception delay</text><text font-family="Times New Roman,Times New Roman_MSFontService,sans-serif" font-weight="400" font-size="16" transform="matrix(1 0 0 0.99958 74.9761 147)">IDLE</text><path d="M0 0 0.000104987 80.9799" stroke="#FF0000" stroke-width="4" stroke-miterlimit="8" fill="none" fill-rule="evenodd" transform="matrix(1.00042 0 0 -1 234 142.954)"/><path d="M0 0 0.000104987 113.919" stroke="#000000" stroke-width="0.666667" stroke-miterlimit="8" stroke-dasharray="2.66667 2" fill="none" fill-rule="evenodd" transform="matrix(1.00042 0 0 -1 574.5 153.403)"/></g></svg>